<svg width="35" height="31" viewBox="0 0 35 31" fill="none" xmlns="http://www.w3.org/2000/svg">
<path d="M35 14.2179C35 22.072 27.1665 28.4359 17.501 28.4359C14.965 28.4359 12.5589 27.9984 10.3852 27.2123C9.57178 27.807 8.24569 28.6204 6.67352 29.304C5.03299 30.0149 3.05751 30.6232 1.09571 30.6232C0.651404 30.6232 0.254942 30.3566 0.0840536 29.9465C-0.0868349 29.5364 0.00886261 29.0716 0.316462 28.7571L0.336969 28.7366C0.357475 28.7161 0.384817 28.6888 0.425831 28.6409C0.501022 28.5589 0.617226 28.429 0.760772 28.2513C1.04103 27.9095 1.41698 27.4037 1.79977 26.7748C2.48333 25.6401 3.1327 24.15 3.26258 22.4753C1.21192 20.1512 0.00202709 17.3008 0.00202709 14.2179C0.00202709 6.36389 7.83556 0 17.501 0C27.1665 0 35 6.36389 35 14.2179Z" fill="#516A80"/>
</svg>
