<?xml version="1.0" encoding="UTF-8"?>
<svg version="1.1" xmlns="http://www.w3.org/2000/svg" width="280" height="280">
<path d="M0 0 C4.49414199 2.99346189 8.59355117 6.48073166 12.22265625 10.48046875 C12.22265625 11.14046875 12.22265625 11.80046875 12.22265625 12.48046875 C12.88265625 12.48046875 13.54265625 12.48046875 14.22265625 12.48046875 C14.48046875 11.89265625 14.73828125 11.30484375 15.00390625 10.69921875 C18.29554266 4.70675247 24.72183191 0.40867096 31.0546875 -1.859375 C41.55898205 -4.04830938 53.84538797 -4.18496417 63.22265625 1.48046875 C63.92390625 1.88136719 64.62515625 2.28226562 65.34765625 2.6953125 C71.4009413 6.65058398 74.74670268 12.26133019 78.22265625 18.48046875 C78.60421875 19.13273437 78.98578125 19.785 79.37890625 20.45703125 C80.46609725 23.06427634 80.64683257 25.4189373 80.84765625 28.23046875 C80.95980469 29.70773438 80.95980469 29.70773438 81.07421875 31.21484375 C81.12320313 31.9625 81.1721875 32.71015625 81.22265625 33.48046875 C82.17140625 33.41859375 83.12015625 33.35671875 84.09765625 33.29296875 C93.99960438 33.35285957 102.2702646 37.89458984 109.38671875 44.484375 C118.46689467 53.98965279 121.33423543 64.03564258 121.3515625 76.875 C121.22265625 79.48046875 121.22265625 79.48046875 120.28515625 82.66796875 C120.19277709 86.82503092 122.54787015 88.3136882 125.296875 91.25 C133.28999391 100.5077503 133.02478338 110.91837906 132.22265625 122.48046875 C132.02534912 123.18413574 131.82804199 123.88780273 131.62475586 124.61279297 C131.42571655 125.53729248 131.42571655 125.53729248 131.22265625 126.48046875 C132.5060301 128.40469987 132.5060301 128.40469987 134.41015625 130.16796875 C141.59731203 137.89917217 144.50582506 147.85986844 144.40087891 158.32885742 C144.09563276 162.0139729 142.9717159 165.37097126 141.78515625 168.85546875 C141.55505859 169.56574219 141.32496094 170.27601563 141.08789062 171.0078125 C140.24954384 173.56902268 139.42962005 176.06654115 138.22265625 178.48046875 C137.56265625 178.48046875 136.90265625 178.48046875 136.22265625 178.48046875 C136.08183321 182.00104467 135.98438802 184.84012289 137.22265625 188.16796875 C140.02841011 197.4620284 138.2888771 206.83376972 134.22265625 215.48046875 C130.01316015 222.26359242 124.20686162 229.54430722 116.28515625 231.85546875 C115.27453125 232.06171875 114.26390625 232.26796875 113.22265625 232.48046875 C113.20847656 233.09792969 113.19429687 233.71539062 113.1796875 234.3515625 C112.74036956 242.15242426 110.79425591 247.97575298 105.13671875 253.52734375 C97.22113932 260.06512607 90.21682991 260.80577639 80.22265625 260.48046875 C80.06990234 261.37958984 80.06990234 261.37958984 79.9140625 262.296875 C78.15141859 267.86364305 71.10032872 271.36990466 66.41015625 274.40234375 C60.2358089 277.44541495 54.21622305 277.86568241 47.47265625 277.85546875 C46.59319336 277.85675781 45.71373047 277.85804688 44.80761719 277.859375 C38.03620363 277.74947378 32.30196904 276.60378541 26.22265625 273.48046875 C26.22265625 272.82046875 26.22265625 272.16046875 26.22265625 271.48046875 C25.54203125 271.29484375 24.86140625 271.10921875 24.16015625 270.91796875 C20.08608746 268.92427551 17.08888682 265.98272167 14.22265625 262.48046875 C14.22265625 261.82046875 14.22265625 261.16046875 14.22265625 260.48046875 C13.56265625 260.48046875 12.90265625 260.48046875 12.22265625 260.48046875 C11.97515625 261.063125 11.72765625 261.64578125 11.47265625 262.24609375 C10.03740179 264.81161111 8.44602612 266.31771673 6.22265625 268.23046875 C5.52140625 268.8440625 4.82015625 269.45765625 4.09765625 270.08984375 C2.22265625 271.48046875 2.22265625 271.48046875 0.22265625 271.48046875 C0.22265625 272.14046875 0.22265625 272.80046875 0.22265625 273.48046875 C-10.62811644 279.05517766 -25.09128712 279.61603488 -36.77734375 276.16796875 C-43.44481004 273.25293977 -48.93160758 267.8082415 -53.77734375 262.48046875 C-53.77734375 261.82046875 -53.77734375 261.16046875 -53.77734375 260.48046875 C-54.45539063 260.526875 -55.1334375 260.57328125 -55.83203125 260.62109375 C-64.56797942 260.95988398 -70.80939236 259.10081401 -78.08984375 254.29296875 C-84.33212181 247.76035218 -86.57135882 241.45017608 -86.77734375 232.48046875 C-87.72609375 232.33609375 -88.67484375 232.19171875 -89.65234375 232.04296875 C-97.36562474 229.8324553 -104.00495982 222.41499411 -107.81640625 215.5625 C-112.389607 205.65389837 -113.39548941 195.85248632 -109.77734375 185.48046875 C-110.02776485 180.63899421 -110.83958243 178.2091658 -113.77734375 174.48046875 C-118.95795119 163.16621759 -118.80750334 152.13646934 -114.77734375 140.48046875 C-112.57068998 135.96826357 -110.27685936 131.83185197 -106.5234375 128.44921875 C-105.94722656 127.79953125 -105.37101562 127.14984375 -104.77734375 126.48046875 C-104.95921254 124.61534065 -104.95921254 124.61534065 -105.77734375 122.48046875 C-106.62042393 111.11093026 -106.56418233 100.39415622 -98.8515625 91.1796875 C-97.60135491 89.84930628 -96.3489428 88.52099129 -95.09375 87.1953125 C-93.483835 85.4687714 -93.483835 85.4687714 -93.83984375 82.66796875 C-94.14921875 81.61609375 -94.45859375 80.56421875 -94.77734375 79.48046875 C-95.63720104 66.19362628 -92.27471229 55.55813623 -83.71484375 45.23046875 C-77.8445696 38.98654231 -70.31045029 34.74151898 -61.77734375 33.48046875 C-59.44432389 33.44222252 -57.11022867 33.43472591 -54.77734375 33.48046875 C-54.78636719 32.92101563 -54.79539063 32.3615625 -54.8046875 31.78515625 C-54.48891754 23.24563807 -50.81638015 16.7992449 -46.77734375 9.48046875 C-46.11734375 9.48046875 -45.45734375 9.48046875 -44.77734375 9.48046875 C-44.46410156 8.60455078 -44.46410156 8.60455078 -44.14453125 7.7109375 C-42.26549358 4.64542176 -40.01760766 3.54863704 -36.90234375 1.79296875 C-35.85304688 1.19097656 -34.80375 0.58898437 -33.72265625 -0.03125 C-24.54518176 -4.66867411 -9.17050802 -4.48012473 0 0 Z " fill="#FD989F" transform="translate(126.77734375,2.51953125)"/>
<path d="M0 0 C19.94948971 -0.78233293 19.94948971 -0.78233293 28 4 C28.70253906 4.40089844 29.40507812 4.80179687 30.12890625 5.21484375 C36.17787344 9.17479381 39.52415101 14.78104856 43 21 C43.3815625 21.65226562 43.763125 22.30453125 44.15625 22.9765625 C45.243441 25.58380759 45.42417632 27.93846855 45.625 30.75 C45.69976562 31.73484375 45.77453125 32.7196875 45.8515625 33.734375 C45.90054688 34.48203125 45.94953125 35.2296875 46 36 C46.94875 35.938125 47.8975 35.87625 48.875 35.8125 C58.77694813 35.87239082 67.04760835 40.41412109 74.1640625 47.00390625 C83.24423842 56.50918404 86.11157918 66.55517383 86.12890625 79.39453125 C86 82 86 82 85.0625 85.1875 C84.97012084 89.34456217 87.3252139 90.83321945 90.07421875 93.76953125 C98.06733766 103.02728155 97.80212713 113.43791031 97 125 C96.80269287 125.70366699 96.60538574 126.40733398 96.40209961 127.13232422 C96.2030603 128.05682373 96.2030603 128.05682373 96 129 C97.28337385 130.92423112 97.28337385 130.92423112 99.1875 132.6875 C106.37465578 140.41870342 109.28316881 150.37939969 109.17822266 160.84838867 C108.87297651 164.53350415 107.74905965 167.89050251 106.5625 171.375 C106.33240234 172.08527344 106.10230469 172.79554688 105.86523438 173.52734375 C105.02688759 176.08855393 104.2069638 178.5860724 103 181 C102.34 181 101.68 181 101 181 C100.85917696 184.52057592 100.76173177 187.35965414 102 190.6875 C104.80575386 199.98155965 103.06622085 209.35330097 99 218 C94.7905039 224.78312367 88.98420537 232.06383847 81.0625 234.375 C80.051875 234.58125 79.04125 234.7875 78 235 C77.98582031 235.61746094 77.97164063 236.23492187 77.95703125 236.87109375 C77.51771331 244.67195551 75.57159966 250.49528423 69.9140625 256.046875 C61.99848307 262.58465732 54.99417366 263.32530764 45 263 C44.84724609 263.89912109 44.84724609 263.89912109 44.69140625 264.81640625 C42.92876234 270.3831743 35.87767247 273.88943591 31.1875 276.921875 C24.86745909 280.03675231 18.93867006 280.26095469 12.0625 280.125 C11.18787109 280.11597656 10.31324219 280.10695313 9.41210938 280.09765625 C7.27461936 280.0742957 5.13727214 280.03843247 3 280 C3 279.34 3 278.68 3 278 C3.78503906 277.70867187 4.57007813 277.41734375 5.37890625 277.1171875 C13.26739006 274.03922695 18.63468222 270.77643863 24.23828125 264.48828125 C27.35362506 261.68138732 30.35690886 260.49207877 34.25 259.1875 C45.17834576 255.11589545 50.95571003 249.14694913 56.296875 238.734375 C59.07998204 234.26608389 62.99654993 231.94857197 67.4375 229.3125 C74.90916285 224.38940768 79.72476208 216.00316083 81.57421875 207.296875 C81.71472656 206.53890625 81.85523438 205.7809375 82 205 C81.08476562 205.02320313 80.16953125 205.04640625 79.2265625 205.0703125 C78.03804688 205.08835938 76.84953125 205.10640625 75.625 205.125 C74.44164062 205.14820313 73.25828125 205.17140625 72.0390625 205.1953125 C69 205 69 205 67 203 C67.55555556 198.44444444 67.55555556 198.44444444 69 197 C71.18292774 196.76518307 73.37203174 196.58636677 75.5625 196.4375 C76.76003906 196.35371094 77.95757812 196.26992187 79.19140625 196.18359375 C80.11824219 196.12300781 81.04507813 196.06242188 82 196 C81.84273438 195.43410156 81.68546875 194.86820313 81.5234375 194.28515625 C79.47265167 185.3320987 81.95916855 178.96242525 86 171 C88.90368664 162.28894007 87.81672566 150.87980575 84.35546875 142.5078125 C82.882003 139.78168855 81.11404834 137.47279435 79.25 135 C75.20312021 129.04114099 75.59017084 123.84006697 75.84130859 116.92236328 C76.1886111 107.29575194 74.07334017 100.82888135 68.40234375 93.0078125 C65.73505844 89.18891376 64.73785706 86.71857301 65 82 C53.93640688 83.67388657 45.9363516 86.47598749 38.375 94.9375 C37.92125 95.618125 37.4675 96.29875 37 97 C32.125 96.125 32.125 96.125 31 95 C30.58828201 91.83085494 30.71307334 90.41662331 32.546875 87.75390625 C41.50100132 78.84740826 52.18151006 73 65 73 C63.72684206 62.88058947 59.74224243 53.56038497 52.11328125 46.57421875 C46.99369808 42.76055513 40.56465661 38.43409425 33.9375 38.625 C24.44587074 40.87926195 17.23242733 49.28529485 12 57 C10.35 56.67 8.7 56.34 7 56 C6.125 54 6.125 54 6 51 C9.86405248 43.95031647 16.73700234 36.52774172 24 33 C24.66 33 25.32 33 26 33 C22.02025277 20.10708616 17.36675339 10.66406322 5 4 C3.34399392 3.30727633 1.67954829 2.63351383 0 2 C0 1.34 0 0.68 0 0 Z " fill="#FD8087" transform="translate(162,0)"/>
<path d="M0 0 C0.99 0.66 1.98 1.32 3 2 C3 2.66 3 3.32 3 4 C3.66 4 4.32 4 5 4 C5.66 2.68 6.32 1.36 7 0 C7.33 0 7.66 0 8 0 C8.495 12.375 8.495 12.375 9 25 C11.64 22.69 14.28 20.38 17 18 C18.65 18 20.3 18 22 18 C23 19 23 19 23.5625 21.625 C22.79510842 26.22934949 20.56421944 27.44119423 17.0390625 30.28125 C12.20524174 34.35573493 10.45164316 39.00413853 9 45 C8.71470274 48.57405063 8.71470274 48.57405063 8.77294922 52.31225586 C8.77265717 53.00578156 8.77236511 53.69930725 8.77206421 54.41384888 C8.77344526 56.68097941 8.78894778 58.94777142 8.8046875 61.21484375 C8.808422 62.79667481 8.81126691 64.3785082 8.81326294 65.96034241 C8.82086499 70.10481253 8.84048367 74.2491404 8.8626709 78.39355469 C8.88320353 82.63018876 8.89228046 86.86684603 8.90234375 91.10351562 C8.92373311 99.40240872 8.9578272 107.70118661 9 116 C9.51949219 115.4946875 10.03898437 114.989375 10.57421875 114.46875 C11.27160156 113.8190625 11.96898437 113.169375 12.6875 112.5 C13.37199219 111.8503125 14.05648437 111.200625 14.76171875 110.53125 C17.42065443 108.71222245 18.84181382 108.61262452 22 109 C23 110 23 110 23.296875 112.3515625 C23 115 23 115 21.390625 116.7734375 C20.33101562 117.56621094 20.33101562 117.56621094 19.25 118.375 C13.57866898 122.99422897 11.0315936 127.95168474 9 135 C8.71505943 137.98712736 8.71505943 137.98712736 8.77294922 141.09716797 C8.77317581 142.86832474 8.77317581 142.86832474 8.77340698 144.67526245 C8.78372955 145.93484772 8.79405212 147.19443298 8.8046875 148.4921875 C8.80893234 150.44380295 8.80893234 150.44380295 8.81326294 152.43484497 C8.82086325 155.8773582 8.84048027 159.31970003 8.8626709 162.762146 C8.88320739 166.28151125 8.89228127 169.80090447 8.90234375 173.3203125 C8.92372998 180.21361163 8.9578219 187.10679757 9 194 C9.78117187 193.21753906 10.56234375 192.43507812 11.3671875 191.62890625 C18.46244605 184.54417479 25.94035234 180.78032882 36.125 180.6875 C40.81368268 180.81368268 40.81368268 180.81368268 42 182 C42.1875 184.4375 42.1875 184.4375 42 187 C39.42095457 189.57904543 37.83048519 189.46989932 34.25 189.9375 C29.61086389 190.66184664 25.98975692 191.40201875 22 194 C21.15888672 194.54720703 21.15888672 194.54720703 20.30078125 195.10546875 C14.5935029 199.3271215 10.86205874 205.16554669 9 212 C7.91449826 219.51988938 8.11284879 227.17007457 8.125 234.75 C8.10684502 236.81512945 8.08603362 238.88023734 8.0625 240.9453125 C8.01102631 245.96381731 7.99554285 250.98124595 8 256 C7.01 255.34 6.02 254.68 5 254 C5 253.34 5 252.68 5 252 C4.34 252 3.68 252 3 252 C2.34 253.32 1.68 254.64 1 256 C0.67 256 0.34 256 0 256 C0.00112793 254.72995117 0.00225586 253.45990234 0.00341797 252.15136719 C-0.00028503 247.38725391 -0.04336812 242.62413454 -0.09765625 237.86035156 C-0.11569597 235.80833387 -0.12340685 233.75619592 -0.12011719 231.70410156 C-0.10692467 218.15538364 -0.11836514 206.74037865 -10.1875 196.5 C-15.58567028 192.44239529 -22.4003295 190.19560138 -29.0625 189.375 C-32 189 -32 189 -34 187 C-34.1875 184.4375 -34.1875 184.4375 -34 182 C-32.24521418 180.24521418 -29.88495037 180.74471472 -27.5 180.6875 C-17.93562795 180.78936905 -10.40418814 185.12987199 -3 191 C-2.34 191.99 -1.68 192.98 -1 194 C-0.90683554 186.4801915 -0.83600156 178.96044374 -0.79275131 171.44018745 C-0.77198073 167.94722053 -0.74385994 164.45465186 -0.69824219 160.96191406 C-0.64599054 156.93551061 -0.62696802 152.90951773 -0.609375 148.8828125 C-0.58872986 147.64387238 -0.56808472 146.40493225 -0.54681396 145.12844849 C-0.54415011 134.72016426 -2.63404476 126.54133513 -10 119 C-11.95430382 117.25822095 -13.94460677 115.62519465 -16 114 C-15.125 110.125 -15.125 110.125 -14 109 C-10.61226882 109.0664261 -7.99139592 109.17381279 -5.31518555 111.40405273 C-4.8025415 111.95005127 -4.28989746 112.4960498 -3.76171875 113.05859375 C-3.23924561 113.60700928 -2.71677246 114.1554248 -2.1784668 114.72045898 C-1.78957275 115.14270752 -1.40067871 115.56495605 -1 116 C-0.8602719 106.81976887 -0.75401369 97.63991018 -0.68912697 88.45884323 C-0.65796615 84.19450767 -0.6157782 79.93090568 -0.54736328 75.66699219 C-0.48161832 71.54313318 -0.44617964 67.41997452 -0.43073654 63.29563141 C-0.41974792 61.73126465 -0.39829213 60.16693126 -0.36561966 58.60286713 C-0.16598205 48.63930486 -1.02506562 40.42194 -7 32 C-9.03644778 29.98971948 -11.03759407 28.25886138 -13.36328125 26.59765625 C-15.51665905 24.49567172 -15.82362536 22.96976762 -16 20 C-15.34 19.34 -14.68 18.68 -14 18 C-9 18 -9 18 -1 25 C-0.67 16.75 -0.34 8.5 0 0 Z " fill="#FE6570" transform="translate(136,11)"/>
<path d="M0 0 C1.9375 0.8125 1.9375 0.8125 3.9375 2.8125 C4.46484375 5.203125 4.46484375 5.203125 4.875 8.0625 C6.38641131 16.79004802 9.73095131 21.69136284 16.9375 26.8125 C23.46471278 30.1088516 31.60780828 29.87115083 38.60546875 28.16015625 C43.65823302 26.13383254 46.73404041 23.14015387 50.36328125 19.1640625 C51.9375 17.8125 51.9375 17.8125 54.875 17.875 C55.555625 18.184375 56.23625 18.49375 56.9375 18.8125 C58.25656846 23.20431175 58.25656846 23.20431175 56.85546875 25.875 C50.95302801 32.48360182 43.98804121 37.09798359 34.9375 37.8125 C37.1909957 45.49487172 39.67908655 51.99892197 46.59375 56.71484375 C50.84934901 58.70788262 55.42400011 59.40163476 60.0234375 60.234375 C62.9375 60.8125 62.9375 60.8125 63.9375 61.8125 C64.125 64.25 64.125 64.25 63.9375 66.8125 C61.9375 68.8125 61.9375 68.8125 58.375 69.125 C55.078411 69.05918788 52.41199935 68.41908945 49.3125 67.3125 C44.852712 65.7267976 41.49708632 64.73477944 36.93359375 66.65625 C31.55476734 69.58835427 28.82001284 72.99982877 26.9375 78.8125 C26.56218554 81.13944964 26.21832798 83.47226685 25.9375 85.8125 C24.9475 86.8025 24.9475 86.8025 23.9375 87.8125 C19.38194444 87.25694444 19.38194444 87.25694444 17.9375 85.8125 C17.22056551 78.28468784 18.64021694 73.06777774 22.9375 66.8125 C26.45755716 62.97180397 29.69045543 59.75907151 34.9375 58.8125 C34.53917969 58.24402344 34.14085937 57.67554688 33.73046875 57.08984375 C25.30175781 44.80566406 25.30175781 44.80566406 25.9375 37.8125 C25.009375 37.93625 24.08125 38.06 23.125 38.1875 C16.4129366 38.14673848 10.56220564 34.06415103 5.62890625 29.83203125 C-0.49015418 23.48162638 -5.16637847 15.22875457 -5.5625 6.25 C-5.0625 2.8125 -5.0625 2.8125 -3.8125 0.75 C-2.0625 -0.1875 -2.0625 -0.1875 0 0 Z " fill="#FE6671" transform="translate(168.0625,88.1875)"/>
<path d="M0 0 C2.375 0.8125 2.375 0.8125 3.375 2.8125 C4.23466943 10.89339266 1.23908827 18.54425115 -3.375 25.125 C-9.65299607 32.84203295 -17.72240555 37.60486653 -27.625 38.8125 C-27.8725 39.9675 -28.12 41.1225 -28.375 42.3125 C-29.90111145 48.4169458 -32.58374383 53.9629926 -36.625 58.8125 C-35.944375 59.01875 -35.26375 59.225 -34.5625 59.4375 C-27.67125914 62.66318721 -23.67156654 67.3316101 -20.49609375 74.203125 C-19.13653595 78.27570172 -19.21910372 81.55058904 -19.625 85.8125 C-20.625 86.8125 -20.625 86.8125 -23.625 86.9375 C-26.625 86.8125 -26.625 86.8125 -27.625 85.8125 C-27.84415986 84.29318905 -28.05016833 82.77197375 -28.25 81.25 C-29.38312521 75.3117423 -32.11163774 71.73716283 -36.625 67.8125 C-40.32422556 65.64709967 -43.37889576 65.40422075 -47.625 65.8125 C-49.1137072 66.28333427 -50.59258386 66.78592563 -52.0625 67.3125 C-56.04757211 68.73285509 -59.35743639 69.24796567 -63.625 68.8125 C-65.625 66.8125 -65.625 66.8125 -65.8125 64.25 C-65.625 61.8125 -65.625 61.8125 -64.625 60.8125 C-63.15011288 60.53837957 -61.66971605 60.29373495 -60.1875 60.0625 C-53.04202878 58.67025919 -47.08040865 56.05893771 -41.6875 51.125 C-39.04693342 46.88409004 -37.79850119 42.64007401 -36.625 37.8125 C-37.57375 37.77125 -38.5225 37.73 -39.5 37.6875 C-47.12699434 36.57361847 -54.00221275 31.42263099 -58.70703125 25.4921875 C-59.625 23.8125 -59.625 23.8125 -59.5 20.875 C-58.625 18.8125 -58.625 18.8125 -56.5625 17.875 C-53.625 17.8125 -53.625 17.8125 -51.91015625 19.19921875 C-50.70122861 20.4610535 -49.5062036 21.73633036 -48.32421875 23.0234375 C-43.49194004 28.11121601 -38.24085844 28.97634058 -31.5 29.1875 C-23.95228183 29.11126042 -18.39806656 27.18551169 -12.74609375 22.1328125 C-8.43097523 17.45376832 -6.80748416 12.91669107 -6.1875 6.625 C-5.625 2.8125 -5.625 2.8125 -4.375 0.75 C-2.625 -0.1875 -2.625 -0.1875 0 0 Z " fill="#FE6671" transform="translate(113.625,88.1875)"/>
<path d="M0 0 C5.2105013 3.20310549 10.64879449 7.30977424 13.64453125 12.74609375 C13.32421875 15.4921875 13.32421875 15.4921875 12.64453125 17.74609375 C10.99453125 18.07609375 9.34453125 18.40609375 7.64453125 18.74609375 C7.15146484 18.07513672 7.15146484 18.07513672 6.6484375 17.390625 C1.23782631 10.51372351 -5.70627588 6.35865513 -14.35546875 4.74609375 C-22.70296084 3.9753736 -28.82517675 5.18813795 -36.35546875 8.74609375 C-37.34546875 9.07609375 -38.33546875 9.40609375 -39.35546875 9.74609375 C-41.35546875 4.12109375 -41.35546875 4.12109375 -41.35546875 0.74609375 C-28.48304679 -6.1985655 -13.09462248 -6.97076918 0 0 Z " fill="#FE6570" transform="translate(73.35546875,78.25390625)"/>
<path d="M0 0 C-0.33 2.64 -0.66 5.28 -1 8 C-4.92482665 8 -6.07969407 7.63077252 -9.4375 6 C-17.51245294 2.65330121 -26.70110987 2.71883408 -34.8671875 5.8828125 C-40.53241446 8.85031234 -45.33570104 12.75705651 -49 18 C-53.875 17.125 -53.875 17.125 -55 16 C-55.41171799 12.83085494 -55.28692666 11.41662331 -53.453125 8.75390625 C-37.85272125 -6.76351663 -19.51877149 -8.53946253 0 0 Z " fill="#FE6570" transform="translate(248,79)"/>
<path d="M0 0 C1 1 1 1 1.1875 3.4375 C1 6 1 6 -1 8 C-2.8828125 8.23828125 -2.8828125 8.23828125 -5.125 8.3125 C-12.12593405 8.98674726 -16.88039745 12.32506914 -21.375 17.625 C-24.27487914 21.73185587 -25.00085192 25.74537712 -25.578125 30.6796875 C-26 33 -26 33 -28 35 C-32.55555556 34.44444444 -32.55555556 34.44444444 -34 33 C-35.39388207 24.58377535 -32.60883872 17.95248223 -28 11 C-25.57764022 8.22375638 -23.03833417 6.07369195 -20 4 C-19.38382813 3.56816406 -18.76765625 3.13632813 -18.1328125 2.69140625 C-12.44453732 -0.71919858 -6.47982365 -0.63243079 0 0 Z " fill="#FE6671" transform="translate(215,195)"/>
<path d="M0 0 C8.0153828 0.10305492 15.08704712 3.00242184 20.9609375 8.47265625 C27.60691449 16.10742494 30.05267333 23.34564226 29.5625 33.3125 C28.9025 33.9725 28.2425 34.6325 27.5625 35.3125 C23.00694444 34.75694444 23.00694444 34.75694444 21.5625 33.3125 C21.31668645 31.62734443 21.09109058 29.93922422 20.875 28.25 C19.70981441 21.65299333 17.15288315 17.25327837 11.96484375 13.00390625 C7.83304263 10.33728283 3.51647129 9.52764424 -1.30078125 8.8046875 C-3.4375 8.3125 -3.4375 8.3125 -5.4375 6.3125 C-5.625 3.75 -5.625 3.75 -5.4375 1.3125 C-3.84350674 -0.28149326 -2.20751275 0.0654333 0 0 Z " fill="#FE6670" transform="translate(69.4375,194.6875)"/>
<path d="M0 0 C10.33656612 -0.43397797 20.12562841 3.30812442 27.9609375 10.04296875 C37.36928702 19.07282145 37.36928702 19.07282145 39.125 24.4375 C39 27 39 27 37 29 C34.60546875 29.4453125 34.60546875 29.4453125 32 29 C30.11328125 26.8046875 30.11328125 26.8046875 28.3125 23.875 C23.30321116 16.51731109 16.71095159 12.08305364 8 10 C5.33754032 9.62458825 2.67032628 9.31681837 0 9 C-0.33 8.67 -0.66 8.34 -1 8 C-0.82364548 5.30917128 -0.38164079 2.67148554 0 0 Z " fill="#FE6671" transform="translate(73,28)"/>
<path d="M0 0 C0.87890625 6.15234375 0.87890625 6.15234375 1 8 C-0.56662864 9.56662864 -2.2620865 9.15497414 -4.4375 9.25 C-13.30871359 10.07375555 -20.91714543 14.59154251 -27 21 C-29.11393781 23.59203461 -31.09531471 26.25111354 -33 29 C-34.65 28.67 -36.3 28.34 -38 28 C-38.875 26 -38.875 26 -39 23 C-37.36748035 20.02158629 -35.23492339 17.54519475 -33 15 C-32.45730469 14.37480469 -31.91460937 13.74960937 -31.35546875 13.10546875 C-23.29767922 4.44381678 -11.909532 -0.77670861 0 0 Z " fill="#FD6570" transform="translate(207,28)"/>
<path d="M0 0 C3 1 3 1 5.25 3.3125 C11.95708978 9.86715592 19.40832403 12.16012579 28.57421875 12.65625 C31 13 31 13 33 15 C32.44444444 19.55555556 32.44444444 19.55555556 31 21 C19.17763595 22.40503478 9.6428018 18.56443454 0.42578125 11.33203125 C-1 10 -1 10 -2 8 C-1.66015625 6.0546875 -1.66015625 6.0546875 -1.0625 3.875 C-0.86785156 3.15054688 -0.67320313 2.42609375 -0.47265625 1.6796875 C-0.31667969 1.12539062 -0.16070313 0.57109375 0 0 Z " fill="#FE6571" transform="translate(18,184)"/>
<path d="M0 0 C0.66 2.64 1.32 5.28 2 8 C-5.33068904 15.16408247 -15.18258114 20.11839268 -25.5625 20.1875 C-27.01849609 20.20876953 -27.01849609 20.20876953 -28.50390625 20.23046875 C-31 20 -31 20 -33 18 C-32.44444444 13.44444444 -32.44444444 13.44444444 -31 12 C-28.85620112 11.75252391 -26.70980288 11.52746143 -24.5625 11.3125 C-16.63514266 10.23774105 -10.47248523 7.65456311 -4.9140625 1.8046875 C-3 0 -3 0 0 0 Z " fill="#FD6570" transform="translate(262,185)"/>
</svg>
