<svg width="35" height="35" viewBox="0 0 35 35" fill="none" xmlns="http://www.w3.org/2000/svg">
<path d="M12.5 3.75C12.5 1.67969 14.1797 0 16.25 0H18.75C20.8203 0 22.5 1.67969 22.5 3.75V31.25C22.5 33.3203 20.8203 35 18.75 35H16.25C14.1797 35 12.5 33.3203 12.5 31.25V3.75ZM0 18.75C0 16.6797 1.67969 15 3.75 15H6.25C8.32031 15 10 16.6797 10 18.75V31.25C10 33.3203 8.32031 35 6.25 35H3.75C1.67969 35 0 33.3203 0 31.25V18.75ZM28.75 5H31.25C33.3203 5 35 6.67969 35 8.75V31.25C35 33.3203 33.3203 35 31.25 35H28.75C26.6797 35 25 33.3203 25 31.25V8.75C25 6.67969 26.6797 5 28.75 5Z" fill="#516A80"/>
</svg>
