<svg width="35" height="32" viewBox="0 0 35 32" fill="none" xmlns="http://www.w3.org/2000/svg">
<path d="M34.9908 15.5292C34.9908 16.6232 34.0791 17.4802 33.0459 17.4802H31.1009L31.1435 27.2171C31.1435 27.3812 31.1313 27.5453 31.1131 27.7094V28.6941C31.1131 30.0373 30.0251 31.1252 28.6819 31.1252H27.7094C27.6426 31.1252 27.5757 31.1252 27.5089 31.1192C27.4238 31.1252 27.3387 31.1252 27.2536 31.1252L25.2782 31.1192H23.8195C22.4763 31.1192 21.3883 30.0312 21.3883 28.688V27.2293V23.3394C21.3883 22.2636 20.5192 21.3944 19.4434 21.3944H15.5535C14.4777 21.3944 13.6086 22.2636 13.6086 23.3394V27.2293V28.688C13.6086 30.0312 12.5206 31.1192 11.1774 31.1192H9.71866H7.77979C7.68862 31.1192 7.59745 31.1131 7.50628 31.107C7.43335 31.1131 7.36041 31.1192 7.28748 31.1192H6.315C4.97177 31.1192 3.88382 30.0312 3.88382 28.688V21.8807C3.88382 21.826 3.88382 21.7652 3.88989 21.7105V17.4741H1.94495C0.850914 17.4741 0 16.6232 0 15.5231C0 14.9761 0.182339 14.4899 0.607796 14.0644L16.1856 0.486237C16.6111 0.0607796 17.0973 0 17.5228 0C17.9482 0 18.4345 0.121559 18.7991 0.425457L34.3222 14.0705C34.8085 14.4959 35.0516 14.9822 34.9908 15.5292Z" fill="#516A80"/>
</svg>
