<svg width="35" height="35" viewBox="0 0 35 35" fill="none" xmlns="http://www.w3.org/2000/svg">
<path d="M17.5 35C22.1413 35 26.5925 33.1563 29.8744 29.8744C33.1563 26.5925 35 22.1413 35 17.5C35 12.8587 33.1563 8.40752 29.8744 5.12563C26.5925 1.84374 22.1413 0 17.5 0C12.8587 0 8.40752 1.84374 5.12563 5.12563C1.84374 8.40752 0 12.8587 0 17.5C0 22.1413 1.84374 26.5925 5.12563 29.8744C8.40752 33.1563 12.8587 35 17.5 35ZM14.7656 22.9688H16.4062V18.5938H14.7656C13.8564 18.5938 13.125 17.8623 13.125 16.9531C13.125 16.0439 13.8564 15.3125 14.7656 15.3125H18.0469C18.9561 15.3125 19.6875 16.0439 19.6875 16.9531V22.9688H20.2344C21.1436 22.9688 21.875 23.7002 21.875 24.6094C21.875 25.5186 21.1436 26.25 20.2344 26.25H14.7656C13.8564 26.25 13.125 25.5186 13.125 24.6094C13.125 23.7002 13.8564 22.9688 14.7656 22.9688ZM17.5 8.75C18.0802 8.75 18.6366 8.98047 19.0468 9.3907C19.457 9.80094 19.6875 10.3573 19.6875 10.9375C19.6875 11.5177 19.457 12.0741 19.0468 12.4843C18.6366 12.8945 18.0802 13.125 17.5 13.125C16.9198 13.125 16.3634 12.8945 15.9532 12.4843C15.543 12.0741 15.3125 11.5177 15.3125 10.9375C15.3125 10.3573 15.543 9.80094 15.9532 9.3907C16.3634 8.98047 16.9198 8.75 17.5 8.75Z" fill="#516A80"/>
</svg>
