<svg width="35" height="32" viewBox="0 0 35 32" fill="none" xmlns="http://www.w3.org/2000/svg">
<path d="M33.0462 17.4772C34.0793 17.4772 34.9908 16.6264 34.9908 15.5265C35.0516 14.9796 34.8085 14.4934 34.3224 14.068L18.808 0.425383C18.4434 0.121538 17.9573 0 17.5319 0C17.1065 0 16.6203 0.0607691 16.195 0.486152L0.607691 14.068C0.182307 14.4934 0 14.9796 0 15.5265C0 16.6203 0.850767 17.4772 1.94461 17.4772H3.88922V27.2245C3.88922 29.3697 5.63329 31.1138 7.77844 31.1138H27.2488C29.4061 31.1138 31.1502 29.3636 31.1381 27.2063L31.0955 17.4711H33.0401L33.0462 17.4772ZM15.5569 12.64C15.5569 12.1052 15.9944 11.6677 16.5292 11.6677H18.4738C19.0086 11.6677 19.4461 12.1052 19.4461 12.64V15.5569H22.363C22.8978 15.5569 23.3353 15.9944 23.3353 16.5292V18.4738C23.3353 19.0086 22.8978 19.4461 22.363 19.4461H19.4461V22.363C19.4461 22.8978 19.0086 23.3353 18.4738 23.3353H16.5292C15.9944 23.3353 15.5569 22.8978 15.5569 22.363V19.4461H12.64C12.1052 19.4461 11.6677 19.0086 11.6677 18.4738V16.5292C11.6677 15.9944 12.1052 15.5569 12.64 15.5569H15.5569V12.64Z" fill="#2F3B66"/>
</svg>
