<svg width="1225" height="857" viewBox="0 0 1225 857" fill="none" xmlns="http://www.w3.org/2000/svg">
<rect width="1225" height="856" fill="#D8FAFC"/>
<ellipse cx="523" cy="628.5" rx="410" ry="178.5" fill="#9EC180"/>
<path fill-rule="evenodd" clip-rule="evenodd" d="M0 799.387C34.2705 803.7 70.2847 806 107.438 806C336.946 806 523 718.248 523 610C523 501.752 336.946 414 107.438 414C70.2847 414 34.2705 416.3 0 420.613V799.387Z" fill="#AECF91"/>
<path fill-rule="evenodd" clip-rule="evenodd" d="M1225 451.28C1151.87 439.572 1069.66 433 982.763 433C678.033 433 431 513.813 431 613.5C431 713.187 678.033 794 982.763 794C1069.66 794 1151.87 787.428 1225 775.72V451.28Z" fill="#AECF91"/>
<path fill-rule="evenodd" clip-rule="evenodd" d="M1171.61 857L1172.4 855.436H1197.69L1206.29 852.829L1213.37 849.18L1219.94 841.88L1223.99 832.496L1225 825.197V818.419V792.35V594.895C1083.32 532.046 849.556 491 585.166 491C352.39 491 143.351 522.817 0 573.317V752.429L0.000778198 752.428V818.831L1.51936 833.994L5.06276 841.314L10.1247 847.066L16.7053 852.294L25.8169 855.954H34.4223H63.2756L63.4824 857H1171.61Z" fill="#C3E4A6"/>
<rect y="817" width="1225" height="40" fill="#C3E4A6"/>
</svg>
