<svg width="35" height="31" viewBox="0 0 35 31" fill="none" xmlns="http://www.w3.org/2000/svg">
<path d="M4.375 2.1875C4.375 0.977539 3.39746 0 2.1875 0C0.977539 0 0 0.977539 0 2.1875V25.1562C0 28.1777 2.44727 30.625 5.46875 30.625H32.8125C34.0225 30.625 35 29.6475 35 28.4375C35 27.2275 34.0225 26.25 32.8125 26.25H5.46875C4.86719 26.25 4.375 25.7578 4.375 25.1562V2.1875ZM32.1699 8.10742C33.0244 7.25293 33.0244 5.86523 32.1699 5.01074C31.3154 4.15625 29.9277 4.15625 29.0732 5.01074L21.875 12.2158L17.9512 8.29199C17.0967 7.4375 15.709 7.4375 14.8545 8.29199L7.19824 15.9482C6.34375 16.8027 6.34375 18.1904 7.19824 19.0449C8.05273 19.8994 9.44043 19.8994 10.2949 19.0449L16.4062 12.9404L20.3301 16.8643C21.1846 17.7188 22.5723 17.7188 23.4268 16.8643L32.1768 8.11426L32.1699 8.10742Z" fill="#516A80"/>
</svg>
