<svg width="50" height="40" viewBox="0 0 50 40" fill="none" xmlns="http://www.w3.org/2000/svg">
<path d="M16.2514 27.5009C25.2283 27.5009 32.502 21.3445 32.502 13.7505C32.502 6.15646 25.2283 0 16.2514 0C7.27454 0 0.000855064 6.15646 0.000855064 13.7505C0.000855064 16.7662 1.14933 19.5553 3.09471 21.8289C2.82126 22.5633 2.415 23.2117 1.9853 23.7586C1.61028 24.243 1.22746 24.618 0.9462 24.8758C0.80557 25.0008 0.688378 25.1024 0.610251 25.1649C0.571187 25.1962 0.539936 25.2196 0.52431 25.2274L0.508685 25.243C0.0789827 25.5634 -0.108524 26.1259 0.0633572 26.6337C0.235238 27.1415 0.711817 27.5009 1.2509 27.5009C2.95408 27.5009 4.67289 27.0634 6.10262 26.5243C6.8214 26.2509 7.4933 25.9462 8.07144 25.6337C10.4778 26.8212 13.2669 27.5009 16.2514 27.5009ZM35.002 13.7505C35.002 22.5242 27.2596 29.1338 18.0874 29.9229C19.9859 35.7356 26.283 40.0014 33.752 40.0014C36.7365 40.0014 39.5256 39.3216 41.932 38.1341C42.5179 38.4466 43.182 38.7513 43.9008 39.0248C45.3305 39.5638 47.0493 40.0014 48.7525 40.0014C49.2916 40.0014 49.776 39.6498 49.94 39.1341C50.1041 38.6185 49.9244 38.056 49.4869 37.7357L49.4713 37.72C49.4557 37.7044 49.4244 37.6888 49.3853 37.6575C49.3072 37.595 49.19 37.5013 49.0494 37.3685C48.7681 37.1106 48.3853 36.7356 48.0103 36.2512C47.5806 35.7043 47.1743 35.0481 46.9009 34.3215C48.8463 32.0558 49.9947 29.2666 49.9947 26.2431C49.9947 18.9928 43.3617 13.0473 34.9473 12.5317C34.9786 12.9301 34.9942 13.3364 34.9942 13.7427L35.002 13.7505Z" fill="#2F3B66"/>
</svg>
